HIERARCHY
ROOT Hip
{
	OFFSET 0 1.131 0.0052
	CHANNELS 6 Xposition Yposition Zposition Xrotation Yrotation Zrotation
	JOINT Abdomen
	{
		OFFSET 0 -0.047353 -0.05
		CHANNELS 3 Xrotation Zrotation Yrotation
		JOINT Chest
		{
			OFFSET 0 0.132153 0.007439
			CHANNELS 3 Xrotation Zrotation Yrotation
			JOINT Neck
			{
				OFFSET 0 0.3078 0.006161
				CHANNELS 3 Xrotation Zrotation Yrotation
				JOINT Head_comp
				{
					OFFSET 0 0.0884 0.013
					CHANNELS 3 Xrotation Yrotation Zrotation
					End Site
					{
						OFFSET -0 0.156 0.0624
					}
				}
			}
			JOINT Left_Collar
			{
				OFFSET 0.02282 0.250342 0.017193
				CHANNELS 2 Yrotation Zrotation
				JOINT Left_Shoulder
				{
					OFFSET 0.15421 0 0
					CHANNELS 3 Xrotation Yrotation Zrotation
					JOINT Left_Forearm
					{
						OFFSET 0.265212 0 0
						CHANNELS 2 Yrotation Xrotation
						JOINT Left_Hand
						{
							OFFSET 0.27571 0 0
							CHANNELS 2 Zrotation Yrotation
							JOINT L1ProxPhalanx
							{
								OFFSET 0.014142 0.001733 0.014142
								CHANNELS 3 Yrotation Zrotation Xrotation
								JOINT L1MidPhalanx
								{
									OFFSET 0.04 0 0
									CHANNELS 1 Zrotation
									JOINT L1DistPhalanx
									{
										OFFSET 0.035 0 0
										CHANNELS 1 Zrotation
										End Site
										{
											OFFSET 0.029 -0 -0
										}
									}
								}
							}
							JOINT L2ProxPhalanx
							{
								OFFSET 0.0821037 0.001578 0.0219996
								CHANNELS 2 Yrotation Zrotation
								JOINT L2MidPhalanx
								{
									OFFSET 0.04 0 0
									CHANNELS 1 Zrotation
									JOINT L2DistPhalanx
									{
										OFFSET 0.028 0 0
										CHANNELS 1 Zrotation
										End Site
										{
											OFFSET 0.02 -0 -0
										}
									}
								}
							}
							JOINT L3ProxPhalanx
							{
								OFFSET 0.083 0 0
								CHANNELS 2 Yrotation Zrotation
								JOINT L3MidPhalanx
								{
									OFFSET 0.053 0 0
									CHANNELS 1 Zrotation
									JOINT L3DistPhalanx
									{
										OFFSET 0.03 0 0
										CHANNELS 1 Zrotation
										End Site
										{
											OFFSET 0.023 -0 -0
										}
									}
								}
							}
							JOINT L4ProxPhalanx
							{
								OFFSET 0.077274 -0.000761 -0.0207055
								CHANNELS 2 Yrotation Zrotation
								JOINT L4MidPhalanx
								{
									OFFSET 0.05 0 0
									CHANNELS 1 Zrotation
									JOINT L4DistPhalanx
									{
										OFFSET 0.03 0 0
										CHANNELS 1 Zrotation
										End Site
										{
											OFFSET 0.023 -0 -0
										}
									}
								}
							}
							JOINT L5ProxPhalanx
							{
								OFFSET 0.0675499 -0.001644 -0.039
								CHANNELS 2 Yrotation Zrotation
								JOINT L5MidPhalanx
								{
									OFFSET 0.04 0 0
									CHANNELS 1 Zrotation
									JOINT L5DistPhalanx
									{
										OFFSET 0.021 0 0
										CHANNELS 1 Zrotation
										End Site
										{
											OFFSET 0.022 -0 -0
										}
									}
								}
							}
						}
					}
				}
			}
			JOINT Right_Collar
			{
				OFFSET -0.02282 0.250342 0.017193
				CHANNELS 2 Yrotation Zrotation
				JOINT Right_Shoulder
				{
					OFFSET -0.15421 0 0
					CHANNELS 3 Xrotation Yrotation Zrotation
					JOINT Right_Forearm
					{
						OFFSET -0.265212 0 0
						CHANNELS 2 Yrotation Xrotation
						JOINT Right_Hand
						{
							OFFSET -0.27571 3e-006 0
							CHANNELS 2 Zrotation Yrotation
							JOINT R1ProxPhalanx
							{
								OFFSET -0.014142 0.001733 0.014142
								CHANNELS 3 Yrotation Zrotation Xrotation
								JOINT R1MidPhalanx
								{
									OFFSET -0.04 0 0
									CHANNELS 1 Zrotation
									JOINT R1DistPhalanx
									{
										OFFSET -0.035 0 0
										CHANNELS 1 Zrotation
										End Site
										{
											OFFSET -0.029 -0 -0
										}
									}
								}
							}
							JOINT R2ProxPhalanx
							{
								OFFSET -0.0821037 0.001578 0.0219996
								CHANNELS 2 Yrotation Zrotation
								JOINT R2MidPhalanx
								{
									OFFSET -0.04 0 0
									CHANNELS 1 Zrotation
									JOINT R2DistPhalanx
									{
										OFFSET -0.028 0 0
										CHANNELS 1 Zrotation
										End Site
										{
											OFFSET -0.02 -0 -0
										}
									}
								}
							}
							JOINT R3ProxPhalanx
							{
								OFFSET -0.083 0 0
								CHANNELS 2 Yrotation Zrotation
								JOINT R3MidPhalanx
								{
									OFFSET -0.053 0 0
									CHANNELS 1 Zrotation
									JOINT R3DistPhalanx
									{
										OFFSET -0.03 0 0
										CHANNELS 1 Zrotation
										End Site
										{
											OFFSET -0.023 -0 -0
										}
									}
								}
							}
							JOINT R4ProxPhalanx
							{
								OFFSET -0.077274 -0.000761 -0.0207055
								CHANNELS 2 Yrotation Zrotation
								JOINT R4MidPhalanx
								{
									OFFSET -0.05 0 0
									CHANNELS 1 Zrotation
									JOINT R4DistPhalanx
									{
										OFFSET -0.03 0 0
										CHANNELS 1 Zrotation
										End Site
										{
											OFFSET -0.023 -0 -0
										}
									}
								}
							}
							JOINT R5ProxPhalanx
							{
								OFFSET -0.0675499 -0.001644 -0.039
								CHANNELS 2 Yrotation Zrotation
								JOINT R5MidPhalanx
								{
									OFFSET -0.04 0 0
									CHANNELS 1 Zrotation
									JOINT R5DistPhalanx
									{
										OFFSET -0.021 0 0
										CHANNELS 1 Zrotation
										End Site
										{
											OFFSET -0.022 -0 -0
										}
									}
								}
							}
						}
					}
				}
			}
		}
	}
	JOINT Left_Thigh
	{
		OFFSET 0.1118 -0.1612 -0.0442
		CHANNELS 3 Xrotation Zrotation Yrotation
		JOINT Left_Shin
		{
			OFFSET 0 -0.477856 0
			CHANNELS 1 Xrotation
			JOINT Left_Foot
			{
				OFFSET 0 -0.431952 0
				CHANNELS 2 Xrotation Zrotation
				JOINT Left_Toe
				{
					OFFSET 0 -0.0442 0.119
					CHANNELS 1 Xrotation
					End Site
					{
						OFFSET -0 -0 0.07
					}
				}
			}
		}
	}
	JOINT Right_Thigh
	{
		OFFSET -0.1118 -0.1612 -0.0442
		CHANNELS 3 Xrotation Zrotation Yrotation
		JOINT Right_Shin
		{
			OFFSET 0 -0.477856 0
			CHANNELS 1 Xrotation
			JOINT Right_Foot
			{
				OFFSET 0 -0.431952 0
				CHANNELS 2 Xrotation Zrotation
				JOINT Right_Toe
				{
					OFFSET 0 -0.0442 0.119
					CHANNELS 1 Xrotation
					End Site
					{
						OFFSET -0 -0 0.07
					}
				}
			}
		}
	}
}
MOTION
Frames: 13
Frame Time: 0.009975
-0.101351 -0.0603097 0.0606505 1.05708e-013 1.21601e-007 -5.10821e-006 0 0 0 0 0 0 0 0 0 0 0 0 0 0 -0 0 -0 0 0 0 0 -36.7832 -29.9624 77.4898 -4.76427 -12.2444 -6.63439 -16.4575 -31.3511 -13.5114 -0.647911 -24.507 -18.2419 -18.0941 9.02909 -22.0218 -38.2405 -19.3412 17.3445 -18.4185 -40.523 -37.4487 0 0 -0 0 -0 0 0 0 0 37.9386 28.008 73.698 26.2405 28.4472 13.118 18.2167 29.0248 19.6359 0 22.4358 32.6146 28.1246 -8.63175 30.7051 32.2053 23.7634 -7.83088 26.7354 35.1526 30.0193 1.35227 -0.658014 -0.0155328 0.0240216 -1.3762 0.658202 0 1.36367 -0.65801 -0.0156638 1.70755e-006 -1.36358 0.658202 0 
-0.101351 -0.0603097 0.0606505 1.05708e-013 1.21601e-007 -5.10821e-006 0 0 0 0 0 0 0 0 0 0 0 0 0 0 -0 0 -0 0 0 0 0 -36.7832 -29.9624 77.4898 -4.76427 -12.2444 -6.63439 -16.4575 -31.3511 -13.5114 -0.647911 -24.507 -18.2419 -18.0941 9.02909 -22.0218 -38.2405 -19.3412 17.3445 -18.4185 -40.523 -37.4487 0 0 -0 0 -0 0 0 0 0 37.9386 28.008 73.698 26.2405 28.4472 13.118 18.2167 29.0248 19.6359 0 22.4358 32.6146 28.1246 -8.63175 30.7051 32.2053 23.7634 -7.83088 26.7354 35.1526 30.0193 1.35227 -0.658014 -0.0155328 0.0240216 -1.3762 0.658202 0 1.36367 -0.65801 -0.0156638 1.70755e-006 -1.36358 0.658202 0 
-0.10041 -0.0600745 0.0434374 5.40803e-013 2.49237e-008 -5.08412e-006 0 -0 0 0 -0 0 0 -0 0 -0.710198 0.299057 -9.31394e-006 -1.9618 -21.1831 4.7427 -39.0436 -37.0489 -72.2747 7.48311 9.62555 9.11595 -86.3652 43.744 73.8452 -25.2902 -27.4426 16.2583 1.94909 -8.72591 -1.92837 12.4987 0.715746 -2.27046 3.52952 4.71888 -14.3514 25.659 0.73692 -2.0994 -51.2913 65.8721 14.5895 -0.901251 30.0794 6.6303 20.2829 32.1941 77.6456 2.34632 -0.136993 -1.1842 81.207 -9.88022 85.0186 16.0586 9.71006 -5.05194 -0.635784 9.05092 2.40822 -6.12167 3.41613 -0.71574 3.21787 -2.96335 18.356 -12.3062 -11.4307 -3.43785 46.8477 -59.3714 -2.72076 0.268123 -0.717332 -0.00336525 0.0239015 -0.292004 0.717345 0 0.279472 -0.717331 -0.00350768 0 -0.27945 0.717345 0 
-0.100168 -0.0600742 0.0427723 -2.02516e-013 2.11882e-008 -5.1097e-006 0 -0 0 0 -0 0 0 -0 0 -0.712296 0.287983 -1.21971e-009 -1.97155 -21.2895 5.72404 -38.6981 -34.9774 -73.3408 7.51554 9.67382 9.16165 -86.5696 44.0891 73.9333 -25.2414 -27.48 16.3428 2.10826 -8.56876 -1.86269 12.5598 0.879261 -2.08087 3.63771 4.73492 -14.2628 25.989 0.831075 -2.13931 -51.4282 66.374 14.7633 -0.905674 30.2306 7.07176 19.6896 29.7291 78.8434 2.35623 -0.137682 -1.19015 81.3493 -10.0465 85.0849 15.9634 9.65835 -5.08162 -0.789536 8.8954 2.34494 -6.15179 3.27262 -0.920342 3.14359 -2.97067 18.2874 -12.569 -11.5786 -3.42514 46.9625 -59.8406 -2.83494 0.226179 -0.732561 -0.00289176 0.0240216 -0.250182 0.732572 0 0.237585 -0.73256 -0.00303759 1.69474e-006 -0.237567 0.732572 0 
-0.100139 -0.0600745 0.0427659 -2.08153e-013 2.1159e-008 -5.1097e-006 0 -0 0 0 -0 0 0 -0 0 -0.71228 0.287471 -1.75144e-013 -1.97155 -21.2895 5.73029 -38.6941 -34.9644 -73.3462 7.51554 9.67382 9.16165 -86.5696 44.0891 73.9333 -25.2414 -27.48 16.3428 2.10826 -8.56876 -1.86269 12.5598 0.879261 -2.08087 3.63771 4.73492 -14.2628 25.989 0.831075 -2.13931 -51.4282 66.374 14.7633 -0.905674 30.2306 7.07434 19.6845 29.7128 78.8495 2.35623 -0.137682 -1.19015 81.3493 -10.0465 85.0849 15.9634 9.65835 -5.08162 -0.789536 8.8954 2.34494 -6.15179 3.27262 -0.920342 3.14359 -2.97067 18.2874 -12.569 -11.5786 -3.42514 46.9625 -59.8406 -2.83494 0.225772 -0.734385 -0.00289377 0.0240216 -0.249775 0.734395 0 0.237176 -0.734384 -0.00303994 3.39802e-006 -0.23716 0.734395 0 
-0.100138 -0.0600745 0.0427658 -3.1242e-012 2.11518e-008 -5.1097e-006 0 -0 0 0 -0 0 0 -0 0 -0.71228 0.287451 3.23806e-016 -1.97155 -21.2895 5.73029 -38.6941 -34.9644 -73.3462 7.51554 9.67382 9.16165 -86.5696 44.0891 73.9333 -25.2414 -27.48 16.3428 2.10826 -8.56876 -1.86269 12.5598 0.879261 -2.08087 3.63771 4.73492 -14.2628 25.989 0.831075 -2.13931 -51.4282 66.374 14.7633 -0.905674 30.2306 7.07434 19.6845 29.7128 78.8495 2.35623 -0.137682 -1.19015 81.3493 -10.0465 85.0849 15.9634 9.65835 -5.08162 -0.789536 8.8954 2.34494 -6.15179 3.27262 -0.920342 3.14359 -2.97067 18.2874 -12.569 -11.5786 -3.42514 46.9625 -59.8406 -2.83494 0.22577 -0.734416 -0.00289388 0.0240216 -0.249773 0.734427 0 0.237176 -0.734416 -0.00304007 3.41509e-006 -0.237159 0.734427 0 
-0.100138 -0.0600745 0.0427658 -7.41974e-014 2.11517e-008 -5.1097e-006 0 -0 0 0 -0 0 0 -0 0 -0.71228 0.287451 -3.88256e-019 -1.97155 -21.2895 5.73029 -38.6941 -34.9644 -73.3462 7.51554 9.67382 9.16165 -86.5696 44.0891 73.9333 -25.2414 -27.48 16.3428 2.10826 -8.56876 -1.86269 12.5598 0.879261 -2.08087 3.63771 4.73492 -14.2628 25.989 0.831075 -2.13931 -51.4282 66.374 14.7633 -0.905674 30.2306 7.07434 19.6845 29.7128 78.8495 2.35623 -0.137682 -1.19015 81.3493 -10.0465 85.0849 15.9634 9.65835 -5.08162 -0.789536 8.8954 2.34494 -6.15179 3.27262 -0.920342 3.14359 -2.97067 18.2874 -12.569 -11.5786 -3.42514 46.9625 -59.8406 -2.83494 0.22577 -0.734417 -0.00289388 0.0240216 -0.249773 0.734427 0 0.237176 -0.734416 -0.00304007 3.62225e-008 -0.237157 0.734428 0 
-0.100138 -0.0600745 0.0427658 1.39723e-012 2.11517e-008 -5.1097e-006 0 -0 0 0 -0 0 0 -0 0 -0.71228 0.287451 3.88256e-019 -1.97155 -21.2895 5.73029 -38.6941 -34.9644 -73.3462 7.51554 9.67382 9.16165 -86.5696 44.0891 73.9333 -25.2414 -27.48 16.3428 2.10826 -8.56876 -1.86269 12.5598 0.879261 -2.08087 3.63771 4.73492 -14.2628 25.989 0.831075 -2.13931 -51.4282 66.374 14.7633 -0.905674 30.2306 7.07434 19.6845 29.7128 78.8495 2.35623 -0.137682 -1.19015 81.3493 -10.0465 85.0849 15.9634 9.65835 -5.08162 -0.789536 8.8954 2.34494 -6.15179 3.27262 -0.920342 3.14359 -2.97067 18.2874 -12.569 -11.5786 -3.42514 46.9625 -59.8406 -2.83494 0.22577 -0.734417 -0.00289388 0.0240216 -0.249773 0.734428 0 0.237176 -0.734416 -0.00304007 2.37258e-006 -0.237159 0.734428 0 
-0.100138 -0.0600745 0.0427658 5.76624e-013 2.11517e-008 -5.1097e-006 0 -0 0 0 -0 0 0 -0 0 -0.71228 0.287451 -0 -1.97155 -21.2895 5.73029 -38.6941 -34.9644 -73.3462 7.51554 9.67382 9.16165 -86.5696 44.0891 73.9333 -25.2414 -27.48 16.3428 2.10826 -8.56876 -1.86269 12.5598 0.879261 -2.08087 3.63771 4.73492 -14.2628 25.989 0.831075 -2.13931 -51.4282 66.374 14.7633 -0.905674 30.2306 7.07434 19.6845 29.7128 78.8495 2.35623 -0.137682 -1.19015 81.3493 -10.0465 85.0849 15.9634 9.65835 -5.08162 -0.789536 8.8954 2.34494 -6.15179 3.27262 -0.920342 3.14359 -2.97067 18.2874 -12.569 -11.5786 -3.42514 46.9625 -59.8406 -2.83494 0.22577 -0.734417 -0.00289388 0.0240216 -0.249773 0.734428 0 0.237176 -0.734416 -0.00304007 2.41484e-006 -0.237159 0.734428 0 
-0.100138 -0.0600745 0.0427658 2.93582e-012 2.11517e-008 -5.1097e-006 0 -0 0 0 -0 0 0 -0 0 -0.71228 0.287451 -3.88256e-019 -1.97155 -21.2895 5.73029 -38.6941 -34.9644 -73.3462 7.51554 9.67382 9.16165 -86.5696 44.0891 73.9333 -25.2414 -27.48 16.3428 2.10826 -8.56876 -1.86269 12.5598 0.879261 -2.08087 3.63771 4.73492 -14.2628 25.989 0.831075 -2.13931 -51.4282 66.374 14.7633 -0.905674 30.2306 7.07434 19.6845 29.7128 78.8495 2.35623 -0.137682 -1.19015 81.3493 -10.0465 85.0849 15.9634 9.65835 -5.08162 -0.789536 8.8954 2.34494 -6.15179 3.27262 -0.920342 3.14359 -2.97067 18.2874 -12.569 -11.5786 -3.42514 46.9625 -59.8406 -2.83494 0.22577 -0.734417 -0.00289388 0.0240216 -0.249773 0.734428 0 0.237176 -0.734416 -0.00304007 2.41484e-006 -0.237159 0.734428 0 
-0.100138 -0.0600745 0.0427658 -2.3915e-012 2.11517e-008 -5.1097e-006 0 -0 0 0 -0 0 0 -0 0 -0.71228 0.287451 3.88256e-019 -1.97155 -21.2895 5.73029 -38.6941 -34.9644 -73.3462 7.51554 9.67382 9.16165 -86.5696 44.0891 73.9333 -25.2414 -27.48 16.3428 2.10826 -8.56876 -1.86269 12.5598 0.879261 -2.08087 3.63771 4.73492 -14.2628 25.989 0.831075 -2.13931 -51.4282 66.374 14.7633 -0.905674 30.2306 7.07434 19.6845 29.7128 78.8495 2.35623 -0.137682 -1.19015 81.3493 -10.0465 85.0849 15.9634 9.65835 -5.08162 -0.789536 8.8954 2.34494 -6.15179 3.27262 -0.920342 3.14359 -2.97067 18.2874 -12.569 -11.5786 -3.42514 46.9625 -59.8406 -2.83494 0.22577 -0.734417 -0.00289388 0.0240216 -0.249773 0.734428 0 0.237174 -0.734416 -0.00304005 2.83165e-006 -0.237158 0.734428 0 
-0.100138 -0.0600745 0.0427658 2.2488e-012 2.11517e-008 -5.1097e-006 0 -0 0 0 -0 0 0 -0 0 -0.71228 0.287451 3.88256e-019 -1.97155 -21.2895 5.73029 -38.6941 -34.9644 -73.3462 7.51554 9.67382 9.16165 -86.5696 44.0891 73.9333 -25.2414 -27.48 16.3428 2.10826 -8.56876 -1.86269 12.5598 0.879261 -2.08087 3.63771 4.73492 -14.2628 25.989 0.831075 -2.13931 -51.4282 66.374 14.7633 -0.905674 30.2306 7.07434 19.6845 29.7128 78.8495 2.35623 -0.137682 -1.19015 81.3493 -10.0465 85.0849 15.9634 9.65835 -5.08162 -0.789536 8.8954 2.34494 -6.15179 3.27262 -0.920342 3.14359 -2.97067 18.2874 -12.569 -11.5786 -3.42514 46.9625 -59.8406 -2.83494 0.22577 -0.734417 -0.00289388 0.0240216 -0.249773 0.734428 0 0.237176 -0.734416 -0.00304007 6.6408e-008 -0.237157 0.734428 0 
-0.100138 -0.0600745 0.0427658 -1.21261e-012 2.11517e-008 -5.1097e-006 0 -0 0 0 -0 0 0 -0 0 -0.71228 0.287451 3.88256e-019 -1.97155 -21.2895 5.73029 -38.6941 -34.9644 -73.3462 7.51554 9.67382 9.16165 -86.5696 44.0891 73.9333 -25.2414 -27.48 16.3428 2.10826 -8.56876 -1.86269 12.5598 0.879261 -2.08087 3.63771 4.73492 -14.2628 25.989 0.831075 -2.13931 -51.4282 66.374 14.7633 -0.905674 30.2306 7.07434 19.6845 29.7128 78.8495 2.35623 -0.137682 -1.19015 81.3493 -10.0465 85.0849 15.9634 9.65835 -5.08162 -0.789536 8.8954 2.34494 -6.15179 3.27262 -0.920342 3.14359 -2.97067 18.2874 -12.569 -11.5786 -3.42514 46.9625 -59.8406 -2.83494 0.22577 -0.734417 -0.00289388 0.0240216 -0.249773 0.734428 0 0.237176 -0.734416 -0.00304007 0 -0.237157 0.734428 0 
